/* XPM */
static char * exit_xpm[] = {
"32 32 245 2",
"  	c #FAFAFA",
". 	c #F8F8F8",
"+ 	c #F4F4F4",
"@ 	c #F0F0F0",
"# 	c #ECECEC",
"$ 	c #E7E7E7",
"% 	c #E3E3E3",
"& 	c #DDDDDD",
"* 	c #D9D9D9",
"= 	c #D5D5D5",
"- 	c #D0D0D0",
"; 	c #CCCCCC",
"> 	c #C9C9C9",
", 	c #C6C6C6",
"' 	c #C4C4C4",
") 	c #C3C3C3",
"! 	c #C7C7C7",
"~ 	c #CBCBCB",
"{ 	c #CECECE",
"] 	c #D2D2D2",
"^ 	c #D7D7D7",
"/ 	c #DCDCDC",
"( 	c #E0E0E0",
"_ 	c #E5E5E5",
": 	c #EAEAEA",
"< 	c #EFEFEF",
"[ 	c #F3F3F3",
"} 	c #F6F6F6",
"| 	c #F9F9F9",
"1 	c #D4D4D4",
"2 	c #CFCFCF",
"3 	c #BFBFBF",
"4 	c #BBBBBB",
"5 	c #B8B8B8",
"6 	c #B5B5B5",
"7 	c #B4B4B4",
"8 	c #B6B6B6",
"9 	c #B9B9B9",
"0 	c #BDBDBD",
"a 	c #C1C1C1",
"b 	c #D1D1D1",
"c 	c #E8E8E8",
"d 	c #EDEDED",
"e 	c #F2F2F2",
"f 	c #E4E4E4",
"g 	c #DEDEDE",
"h 	c #C2C2C2",
"i 	c #BCBCBC",
"j 	c #B0B0B0",
"k 	c #ABABAB",
"l 	c #A8A8A8",
"m 	c #A6A6A6",
"n 	c #A4A4A4",
"o 	c #A5A5A5",
"p 	c #A7A7A7",
"q 	c #AAAAAA",
"r 	c #AEAEAE",
"s 	c #B3B3B3",
"t 	c #CDCDCD",
"u 	c #DBDBDB",
"v 	c #E1E1E1",
"w 	c #D6D6D6",
"x 	c #BEBEBE",
"y 	c #A0A0A0",
"z 	c #9B9B9B",
"A 	c #979797",
"B 	c #959595",
"C 	c #939393",
"D 	c #929292",
"E 	c #949494",
"F 	c #969696",
"G 	c #999999",
"H 	c #9D9D9D",
"I 	c #B2B2B2",
"J 	c #CACACA",
"K 	c #DADADA",
"L 	c #EBEBEB",
"M 	c #BABABA",
"N 	c #9F9F9F",
"O 	c #909090",
"P 	c #8A8A8A",
"Q 	c #858585",
"R 	c #828282",
"S 	c #808080",
"T 	c #7F7F7F",
"U 	c #818181",
"V 	c #848484",
"W 	c #878787",
"X 	c #8D8D8D",
"Y 	c #ADADAD",
"Z 	c #C8C8C8",
"` 	c #E6E6E6",
" .	c #A3A3A3",
"..	c #787878",
"+.	c #737373",
"@.	c #6F6F6F",
"#.	c #6C6C6C",
"$.	c #6E6E6E",
"%.	c #717171",
"&.	c #767676",
"*.	c #7C7C7C",
"=.	c #838383",
"-.	c #8B8B8B",
";.	c #A9A9A9",
">.	c #E2E2E2",
",.	c #D8D8D8",
"'.	c #ACACAC",
").	c #A1A1A1",
"!.	c #6D6D6D",
"~.	c #666666",
"{.	c #606060",
"].	c #5B5B5B",
"^.	c #585858",
"/.	c #5A5A5A",
"(.	c #5E5E5E",
"_.	c #636363",
":.	c #696969",
"<.	c #7B7B7B",
"[.	c #9C9C9C",
"}.	c #D3D3D3",
"|.	c #A2A2A2",
"1.	c #888888",
"2.	c #707070",
"3.	c #656565",
"4.	c #525252",
"5.	c #4C4C4C",
"6.	c #474747",
"7.	c #444444",
"8.	c #464646",
"9.	c #4A4A4A",
"0.	c #505050",
"a.	c #565656",
"b.	c #6B6B6B",
"c.	c #8F8F8F",
"d.	c #898989",
"e.	c #7A7A7A",
"f.	c #545454",
"g.	c #484848",
"h.	c #3F3F3F",
"i.	c #393939",
"j.	c #343434",
"k.	c #313131",
"l.	c #303030",
"m.	c #323232",
"n.	c #363636",
"o.	c #3C3C3C",
"p.	c #4F4F4F",
"q.	c #676767",
"r.	c #747474",
"s.	c #9E9E9E",
"t.	c #C5C5C5",
"u.	c #B7B7B7",
"v.	c #8C8C8C",
"w.	c #7D7D7D",
"x.	c #5F5F5F",
"y.	c #515151",
"z.	c #434343",
"A.	c #383838",
"B.	c #2E2E2E",
"C.	c #262626",
"D.	c #212121",
"E.	c #1E1E1E",
"F.	c #202020",
"G.	c #242424",
"H.	c #2A2A2A",
"I.	c #333333",
"J.	c #3E3E3E",
"K.	c #595959",
"L.	c #B1B1B1",
"M.	c #727272",
"N.	c #626262",
"O.	c #424242",
"P.	c #282828",
"Q.	c #171717",
"R.	c #121212",
"S.	c #0F0F0F",
"T.	c #0E0E0E",
"U.	c #101010",
"V.	c #141414",
"W.	c #1A1A1A",
"X.	c #232323",
"Y.	c #3B3B3B",
"Z.	c #4B4B4B",
"`.	c #6A6A6A",
" +	c #797979",
".+	c #454545",
"++	c #353535",
"@+	c #111111",
"#+	c #0A0A0A",
"$+	c #060606",
"%+	c #050505",
"&+	c #040404",
"*+	c #080808",
"=+	c #161616",
"-+	c #3D3D3D",
";+	c #4D4D4D",
">+	c #C0C0C0",
",+	c #3A3A3A",
"'+	c #1B1B1B",
")+	c #030303",
"!+	c #020202",
"~+	c #010101",
"{+	c #0C0C0C",
"]+	c #555555",
"^+	c #686868",
"/+	c #575757",
"(+	c #131313",
"_+	c #000000",
":+	c #0D0D0D",
"<+	c #292929",
"[+	c #616161",
"}+	c #868686",
"|+	c #2B2B2B",
"1+	c #070707",
"2+	c #222222",
"3+	c #5C5C5C",
"4+	c #4E4E4E",
"5+	c #272727",
"6+	c #090909",
"7+	c #252525",
"8+	c #1C1C1C",
"9+	c #414141",
"0+	c #9A9A9A",
"a+	c #151515",
"b+	c #777777",
"c+	c #404040",
"d+	c #2D2D2D",
"e+	c #494949",
"f+	c #5D5D5D",
"g+	c #0B0B0B",
"h+	c #989898",
"i+	c #1F1F1F",
"j+	c #191919",
"k+	c #181818",
"l+	c #646464",
"m+	c #373737",
"n+	c #535353",
"o+	c #AFAFAF",
"p+	c #757575",
"q+	c #7E7E7E",
"r+	c #DFDFDF",
"s+	c #E9E9E9",
"t+	c #F1F1F1",
"u+	c #EEEEEE",
"v+	c #F5F5F5",
"  . + @ # $ % & * = - ; > , ' ) ) ) ' ! ~ { ] ^ / ( _ : < [ } | ",
". + < : _ ( * 1 2 > ) 3 4 5 6 7 7 6 8 9 0 a , ; b ^ & % c d e } ",
"+ < : f g ^ - > h i 8 j k l m n n o p q r s 9 3 , t 1 u v $ d e ",
"@ : f & w t , x 6 r p y z A B C D E F G H n k I 9 h J ] K v $ d ",
"L f & = ; ) M j l N A O P Q R S T U V W X E z n Y 6 3 Z b K v c ",
"` g w ; h 5 Y  .G O W T ..+.@.#.#.$.%.&.*.=.-.B N ;.s 0 Z ] K >.",
"v ,.{ ' 5 '.).F P T &.!.~.{.].^.^./.(._.:.%.<.Q O [.p s x > }./ ",
"u b ! 4 r |.B 1.<.2.3./.4.5.6.7.7.8.9.0.a.{.b.&.R c.[.l 6 a ; ^ ",
"w ~ 3 I o A d.e.!.{.f.g.h.i.j.k.l.m.n.o.7.p./.q.r.R O s.'.9 t.- ",
"b t.u.q [.v.w.$.x.y.z.A.B.C.D.E.E.F.G.H.I.J.9.K.q.&.Q E  .L.x ~ ",
"~ 3 L.|.C R M.N.y.O.j.P.E.Q.R.S.T.U.V.W.X.B.Y.Z./.`.e.-.z q 5 t.",
", 9 q z P  +q.a..+++C.W.@+#+$+%+&+%+*+T.=+D.B.-+;+x.2.R D |.I >+",
") 7 n E =.%.(.Z.,+H.'+U.*+)+!+~+~+~+!+%+{+=+X.m.z.]+^+e.v.H '.4 ",
"3 j y c.w.b./+7.k.D.(+*+)+~+_+_+_+_+~+!+%+:+W.<+Y.;+[+r.}+A l u.",
"i Y H -. +~.4.J.|+W.:+&+~+_+_+_+_+_+_+_+!+1+(+2+j.g.3+@.R E o 6 ",
"4 '.z d.&.N.4+,+5+=+6+!+_+_+_+_+_+_+_+_+~+%+T.E.l.z./+b.T D  .s ",
"M q G W r.{.5.A.7+V.1+!+_+_+_+_+_+_+_+_+~+&+:+8+B.9+]+:.w.O |.I ",
"M k 0+W r.{.5.A.7+a+*+!+_+_+_+_+_+_+_+_+~+&+:+8+B.9+a.`.w.O |.I ",
"4 '.[.P b+_.p.Y.P.Q.#+)+~+_+_+_+_+_+_+_+~+%+S.E.k.7.^.#.S D n 7 ",
"0 r s.v.e.q.f.c+d+8+S.%+~+_+_+_+_+_+_+~+)+6+V.G.++e+f+%.=.E m 8 ",
">+L.).O T !./.6.j.G.=+g+&+~+~+_+_+_+~+!+$+S.8+|+o.p.N.&.W h+;.5 ",
"' 8 m F }+r.[+p.J.d+i+V.#+%+!+!+~+!+)+1+T.j+7+j.8./+`.*.X s.r i ",
"Z 4 '.H X *.b./.e+i.|+i+a+T.6+$+$+1+g+U.j+G.k.c+y.[++.V B o s a ",
"t a s o B Q &.3.a.6.i.d+X.'+=+(+R.V.k+E.5+m.h.4+f+!.w.X H k M ! ",
"] ! M Y N c.S M.l+a.e+-+I.|+C.X.X.G.P.B.m+O.p.3+`. +W F o s >+; ",
",.t a 6 l 0+X T M.3.K.4+.+J.i.n.++m+Y.9+e+n+(.b...Q C y o+4 ! ] ",
"& }.> x I o G X S p+`.{.^.4.;+9.e+Z.p.f.].l+@.e.}+D N k u.) 2 ,.",
">.K b ! 4 j m 0+c.Q <.M.b.~.[+(.f+x._.^+$.&.T d.C N k 6 >+; = g ",
"c ( ,.2 , 4 L.p s.B v.V q+ +p+M.%.+.&.<.S W O G |.'.8 >+J 1 / f ",
"d ` r+,.- , 0 6 '.n [.B c.P 1.Q Q }+d.v.D h+y l j 9 a ~ }.u % s+",
"t+# ` r+,.b > a M I k o N [.0+h+A G z H |.l r 8 0 ' t 1 / >.c u+",
"v+t+# ` ( K }.t , >+M 7 j Y k ;.l q '.r I 8 0 ) > - w & % s+u+[ "};
