/* XPM */
static char * exit_xpm[] = {
"32 32 172 2",
"  	c #5A5A5A",
". 	c #494949",
"+ 	c #454545",
"@ 	c #686868",
"# 	c #878787",
"$ 	c #6C6C6C",
"% 	c #5C5C5C",
"& 	c #7A7A7A",
"* 	c #969696",
"= 	c #929292",
"- 	c #A2A2A2",
"; 	c #737373",
"> 	c #727272",
", 	c #9F9F9F",
"' 	c #555555",
") 	c #666666",
"! 	c #4D4D4D",
"~ 	c #535353",
"{ 	c #7E7E7E",
"] 	c #8D8D8D",
"^ 	c #999999",
"/ 	c #C9C9C9",
"( 	c #7F7F7F",
"_ 	c #5D5D5D",
": 	c #939393",
"< 	c #4B4B4B",
"[ 	c #424242",
"} 	c #404040",
"| 	c #474747",
"1 	c #3D3D3D",
"2 	c #707070",
"3 	c #A7A7A7",
"4 	c #C0C0C0",
"5 	c #909090",
"6 	c #787878",
"7 	c #919191",
"8 	c #B8B8B8",
"9 	c #696969",
"0 	c #606060",
"a 	c #818181",
"b 	c #A9A9A9",
"c 	c #D8D8D8",
"d 	c #E6E6E6",
"e 	c #B6B6B6",
"f 	c #6E6E6E",
"g 	c #515151",
"h 	c #383838",
"i 	c #3B3B3B",
"j 	c #4F4F4F",
"k 	c #C5C5C5",
"l 	c #F0F0F0",
"m 	c #E4E4E4",
"n 	c #C1C1C1",
"o 	c #ABABAB",
"p 	c #CECECE",
"q 	c #959595",
"r 	c #828282",
"s 	c #626262",
"t 	c #898989",
"u 	c #B9B9B9",
"v 	c #E5E5E5",
"w 	c #C3C3C3",
"x 	c #EFEFEF",
"y 	c #E9E9E9",
"z 	c #DDDDDD",
"A 	c #565656",
"B 	c #636363",
"C 	c #9A9A9A",
"D 	c #D1D1D1",
"E 	c #8F8F8F",
"F 	c #CBCBCB",
"G 	c #DEDEDE",
"H 	c #A5A5A5",
"I 	c #767676",
"J 	c #888888",
"K 	c #BDBDBD",
"L 	c #C7C7C7",
"M 	c #ADADAD",
"N 	c #E3E3E3",
"O 	c #D4D4D4",
"P 	c #757575",
"Q 	c #777777",
"R 	c #AAAAAA",
"S 	c #D7D7D7",
"T 	c #717171",
"U 	c #868686",
"V 	c #949494",
"W 	c #585858",
"X 	c #8E8E8E",
"Y 	c #DADADA",
"Z 	c #C4C4C4",
"` 	c #8C8C8C",
" .	c #323232",
"..	c #6A6A6A",
"+.	c #9B9B9B",
"@.	c #7D7D7D",
"#.	c #B2B2B2",
"$.	c #6D6D6D",
"%.	c #CDCDCD",
"&.	c #A3A3A3",
"*.	c #DCDCDC",
"=.	c #E8E8E8",
"-.	c #D6D6D6",
";.	c #8B8B8B",
">.	c #808080",
",.	c #979797",
"'.	c #848484",
").	c #B3B3B3",
"!.	c #C2C2C2",
"~.	c #5F5F5F",
"{.	c #656565",
"].	c #A1A1A1",
"^.	c #858585",
"/.	c #EEEEEE",
"(.	c #F2F2F2",
"_.	c #EBEBEB",
":.	c #9E9E9E",
"<.	c #EAEAEA",
"[.	c #F1F1F1",
"}.	c #E0E0E0",
"|.	c #C8C8C8",
"1.	c #B5B5B5",
"2.	c #FBFBFB",
"3.	c #F7F7F7",
"4.	c #E1E1E1",
"5.	c #DFDFDF",
"6.	c #D2D2D2",
"7.	c #D0D0D0",
"8.	c #D5D5D5",
"9.	c #ECECEC",
"0.	c #E2E2E2",
"a.	c #8A8A8A",
"b.	c #A8A8A8",
"c.	c #CACACA",
"d.	c #DBDBDB",
"e.	c #B4B4B4",
"f.	c #AFAFAF",
"g.	c #D3D3D3",
"h.	c #262626",
"i.	c #2E2E2E",
"j.	c #BBBBBB",
"k.	c #FDFDFD",
"l.	c #CCCCCC",
"m.	c #C6C6C6",
"n.	c #F5F5F5",
"o.	c #E7E7E7",
"p.	c #353535",
"q.	c #797979",
"r.	c #F3F3F3",
"s.	c #BEBEBE",
"t.	c #FCFCFC",
"u.	c #F6F6F6",
"v.	c #FFFFFF",
"w.	c #FAFAFA",
"x.	c #B0B0B0",
"y.	c #BCBCBC",
"z.	c #838383",
"A.	c #A0A0A0",
"B.	c #9D9D9D",
"C.	c #7C7C7C",
"D.	c #D9D9D9",
"E.	c #F9F9F9",
"F.	c #EDEDED",
"G.	c #A4A4A4",
"H.	c #F8F8F8",
"I.	c #ACACAC",
"J.	c #BFBFBF",
"K.	c #F4F4F4",
"L.	c #FEFEFE",
"M.	c #A6A6A6",
"N.	c #9C9C9C",
"O.	c #CFCFCF",
"  . + @ # $ + + % & * $ % = - ; > = , ' ) ! ~ { ] ^ / / ( _ : = ",
"< [ } } < . + | 1 < 2 _ ' 3 4 5 6 7 8 9 . . 0 a a b c d e f @ g ",
"} h i h } 1 + [ | | j ! f k l m n o p q h % r > s t u v 8   i h ",
"1 [ 1 + + [ } i + 1 [ ! & w x y z p n 7 + A B _ 9 2 C D 5 | [ i ",
"} [ 1 [ | + 1 1 i h . E F m G H q * I g . s @ $ J ^ K L B [ 1 [ ",
"! + . % _ ' + i h i % M N O H . 1 | 1 < % 9 P Q R D S M i i 1 } ",
"| i 1 | h 1 . [ 1 } } f K 8 f ! _ j [ _ T j < @ n c u U ~ + } h ",
"i } j j h | j [ [ j     # V f j ! [ + g W g | X Y Z ` X 6 j . 1 ",
" .< ..B A ' [ 1 A W % g $ +.@.| + + 1 } W ' ~ q 4 +.' P U 0 A [ ",
"} ' ; X #.b ( ' T $.@ $.t %.3 ~ [ . + + ~ < j W % A j ! W < + h ",
"1 + 9 &.*.=.-.;.>.,.'.0 ).v !.X ~.i ! ~.| ' a t {.; ].^.i [ } [ ",
"+ [ 1 T !./.(.-.w O F #.S _.S k 5 < . [ h | +.D F D d !.~.[ + | ",
"[ + i _ :.O <.[.y N S }.*.|.1.%.= ~ ~ } ! s K (.2.2.3.4.q } 1 | ",
"+ g . W ; * R 5./.G |.6.L H R 7.5 [ g [ A ~ U 8.[.9.0.Y 3 W i i ",
"7 : a.) {.  B u n b.r ~ 1 { c.d.4 X a [ ' ' . ` 3 J Q ^ e.& } + ",
"d d.c.u Z f.J 9 . h i g [ r !.D %.g.%.7 a.a.~ h.i.i.1 f j.q g h ",
"[.0.0.l k.x l.J } } . ! [ { e 7.m.v n.o.4.-.H ' p.h | q.k e.I ' ",
"y 7.S r.k./.O #.6 < j < ~.7 e s.4 z [.2.t.u.*.E _ ! $ :.%.%.e.:.",
"v r.k.v.w.v D 8.f.{ 2 Q t ; ] : & b.%.d l [.=.8.#.+.].)./ e.x.K ",
"x.v 2.w._.L R Z y.H , j.g.q 9 a = H / Z -.G S k !.N z G Z z.I u ",
"; 1.-.8.c.O p 4 &.z.A.5._.w # B.%.O K C }.0./ q r e F O L ].;.V ",
"| s 9 ..C.A.s.-.M = D.k.E.0.l.c.Y m e.a.y N Z ^.f & q ,.b u K '.",
"2 ( @ . ! [ T c.<./.v.v.E.d.8.G *.y L L w.[.O L L L 7.e B.7.o.6.",
"= B.].5 7 _ ~.M /.2.v.v.2.9.<.F.9.E.u.t.t.d G.: m.}.c., b Y 4.8 ",
").L c Y D 5 B q D H.v.v.v.t.E.k.3.t.2.v.v.H.4.7.F l.&.> I.N N J.",
"y.6.F Z -./ x.c.4.F.2.v.k.r.x t.H.l [.v.k.k.r.}.6.*.6.V e.d.z !.",
"~...~ i Q e.g.9.r.=.K.t.k.w.E.K._.l k.L.E.v.u.5.}._.m k s.M.z.7 ",
"N.4 H @ .., l.Y z 9.l r.K.m _.v.v.v.v.v.v.L.w.K.2.H.m S l.N.$ A ",
"n d.8 ; W r 3 3 #.y w.2.K.c z k.v.v.v.v.L.2.k.v.v.v.v.L.[.O.j.( ",
"6 V Q + . W P X l.3.v.L.n.o.r.v.v.v.v.v.v.v.v.v.v.v.v.v.t.l =.y.",
"q.R = | {.,.s.5.v.v.v.v.t.r.x v.k.L.L.v.2.3.L.L.2.k.v.L.u.o.9.m ",
"s.5.j.a = c.8.<.v.v.v.L.L.2.2.t.r.H.k.(.4.G H.w.9.u.L.u.8.1.z 6."};
