/* XPM */
static char * player_xpm[] = {
"32 32 85 1",
" 	c #FFFFFF",
".	c #F5F5F5",
"+	c #F4F4F4",
"@	c #FEFEFE",
"#	c #959595",
"$	c #4D4D4D",
"%	c #4F4F4F",
"&	c #939393",
"*	c #000000",
"=	c #010101",
"-	c #1A1A1A",
";	c #5A5A5A",
">	c #AAAAAA",
",	c #9E9E9E",
"'	c #363636",
")	c #202020",
"!	c #727272",
"~	c #D7D7D7",
"{	c #ABABAB",
"]	c #4A4A4A",
"^	c #030303",
"/	c #090909",
"(	c #323232",
"_	c #C6C6C6",
":	c #525252",
"<	c #131313",
"[	c #070707",
"}	c #282828",
"|	c #919191",
"1	c #E1E1E1",
"2	c #A5A5A5",
"3	c #141414",
"4	c #020202",
"5	c #121212",
"6	c #3E3E3E",
"7	c #898989",
"8	c #9D9D9D",
"9	c #4E4E4E",
"0	c #080808",
"a	c #BDBDBD",
"b	c #848484",
"c	c #474747",
"d	c #040404",
"e	c #050505",
"f	c #B3B3B3",
"g	c #1E1E1E",
"h	c #191919",
"i	c #5F5F5F",
"j	c #B4B4B4",
"k	c #161616",
"l	c #101010",
"m	c #AEAEAE",
"n	c #5B5B5B",
"o	c #242424",
"p	c #5E5E5E",
"q	c #252525",
"r	c #828282",
"s	c #111111",
"t	c #3A3A3A",
"u	c #434343",
"v	c #636363",
"w	c #2B2B2B",
"x	c #060606",
"y	c #646464",
"z	c #C2C2C2",
"A	c #333333",
"B	c #3C3C3C",
"C	c #8E8E8E",
"D	c #151515",
"E	c #0B0B0B",
"F	c #565656",
"G	c #6D6D6D",
"H	c #0F0F0F",
"I	c #0A0A0A",
"J	c #292929",
"K	c #0E0E0E",
"L	c #222222",
"M	c #2F2F2F",
"N	c #3D3D3D",
"O	c #BCBCBC",
"P	c #1C1C1C",
"Q	c #353535",
"R	c #2D2D2D",
"S	c #787878",
"T	c #696969",
"                                ",
"                                ",
"                                ",
"     .++@                       ",
"     #$%&+                      ",
"     #*=-;>+                    ",
"     ,'**=)!~                   ",
"      {]^**/(!_                 ",
"       _:<***[}:|1              ",
"        12:34=**567_            ",
"          1895***=0(,a+         ",
"           +~bc3d**=e(21        ",
"              1f!g4**=hi>1      ",
"                +j;k=*==l:_     ",
"                   mno4**4p     ",
"                     bq***p     ",
"                   +8:**=kr     ",
"                 +a;s*4*t8      ",
"                12ud**<!21      ",
"              17vwx**sy1        ",
"             zrA*l^4BC+         ",
"           18iDe0=EFf           ",
"         +{G}*HI*/n_            ",
"        _pJ*I[kI-9a             ",
"       _nK*xkL*y8~              ",
"      _FE*E<MN7O                ",
"      2Pd5*uF21                 ",
"      2QoRS|_1                  ",
"      12T21                     ",
"       111                      ",
"                                ",
"                                "};
