/* XPM */
static char * collect_xpm[] = {
"32 32 181 2",
"  	c #FFFFFF",
". 	c #EFEFEF",
"+ 	c #FDFDFD",
"@ 	c #9F9F9F",
"# 	c #9B9B9B",
"$ 	c #F9F9F9",
"% 	c #1A1A1A",
"& 	c #262626",
"* 	c #828282",
"= 	c #EDEDED",
"- 	c #E8E8E8",
"; 	c #111111",
"> 	c #292929",
", 	c #747474",
"' 	c #ACACAC",
") 	c #323232",
"! 	c #989898",
"~ 	c #848484",
"{ 	c #212121",
"] 	c #7C7C7C",
"^ 	c #F1F1F1",
"/ 	c #E0E0E0",
"( 	c #272727",
"_ 	c #7B7B7B",
": 	c #FBFBFB",
"< 	c #636363",
"[ 	c #5C5C5C",
"} 	c #DADADA",
"| 	c #AFAFAF",
"1 	c #707070",
"2 	c #DCDCDC",
"3 	c #525252",
"4 	c #191919",
"5 	c #696969",
"6 	c #303030",
"7 	c #BCBCBC",
"8 	c #3C3C3C",
"9 	c #474747",
"0 	c #0F0F0F",
"a 	c #1E1E1E",
"b 	c #373737",
"c 	c #000000",
"d 	c #414141",
"e 	c #C3C3C3",
"f 	c #C8C8C8",
"g 	c #A4A4A4",
"h 	c #121212",
"i 	c #EAEAEA",
"j 	c #9D9D9D",
"k 	c #D3D3D3",
"l 	c #4C4C4C",
"m 	c #171717",
"n 	c #D7D7D7",
"o 	c #BDBDBD",
"p 	c #616161",
"q 	c #D1D1D1",
"r 	c #CCCCCC",
"s 	c #F3F3F3",
"t 	c #9E9E9E",
"u 	c #E4E4E4",
"v 	c #565656",
"w 	c #8B8B8B",
"x 	c #626262",
"y 	c #2F2F2F",
"z 	c #575757",
"A 	c #1C1C1C",
"B 	c #A9A9A9",
"C 	c #606060",
"D 	c #8E8E8E",
"E 	c #A8A8A8",
"F 	c #B1B1B1",
"G 	c #CFCFCF",
"H 	c #B8B8B8",
"I 	c #C6C6C6",
"J 	c #ABABAB",
"K 	c #0A0A0A",
"L 	c #4B4B4B",
"M 	c #8D8D8D",
"N 	c #151515",
"O 	c #4A4A4A",
"P 	c #D5D5D5",
"Q 	c #BABABA",
"R 	c #6E6E6E",
"S 	c #3A3A3A",
"T 	c #B7B7B7",
"U 	c #BEBEBE",
"V 	c #393939",
"W 	c #999999",
"X 	c #A3A3A3",
"Y 	c #878787",
"Z 	c #E2E2E2",
"` 	c #020202",
" .	c #686868",
"..	c #909090",
"+.	c #F5F5F5",
"@.	c #F0F0F0",
"#.	c #7E7E7E",
"$.	c #969696",
"%.	c #CBCBCB",
"&.	c #585858",
"*.	c #B2B2B2",
"=.	c #2A2A2A",
"-.	c #2B2B2B",
";.	c #404040",
">.	c #F7F7F7",
",.	c #060606",
"'.	c #555555",
").	c #ADADAD",
"!.	c #E6E6E6",
"~.	c #6C6C6C",
"{.	c #888888",
"].	c #9C9C9C",
"^.	c #444444",
"/.	c #494949",
"(.	c #B5B5B5",
"_.	c #C1C1C1",
":.	c #4E4E4E",
"<.	c #B0B0B0",
"[.	c #5E5E5E",
"}.	c #505050",
"|.	c #E9E9E9",
"1.	c #8A8A8A",
"2.	c #DEDEDE",
"3.	c #FEFEFE",
"4.	c #454545",
"5.	c #535353",
"6.	c #0D0D0D",
"7.	c #676767",
"8.	c #939393",
"9.	c #D6D6D6",
"0.	c #858585",
"a.	c #A0A0A0",
"b.	c #919191",
"c.	c #343434",
"d.	c #B3B3B3",
"e.	c #737373",
"f.	c #CDCDCD",
"g.	c #979797",
"h.	c #787878",
"i.	c #E5E5E5",
"j.	c #BFBFBF",
"k.	c #3B3B3B",
"l.	c #717171",
"m.	c #5B5B5B",
"n.	c #818181",
"o.	c #5A5A5A",
"p.	c #050505",
"q.	c #646464",
"r.	c #232323",
"s.	c #484848",
"t.	c #161616",
"u.	c #3D3D3D",
"v.	c #666666",
"w.	c #CACACA",
"x.	c #464646",
"y.	c #C5C5C5",
"z.	c #777777",
"A.	c #141414",
"B.	c #DFDFDF",
"C.	c #5F5F5F",
"D.	c #9A9A9A",
"E.	c #7A7A7A",
"F.	c #545454",
"G.	c #0B0B0B",
"H.	c #6D6D6D",
"I.	c #3E3E3E",
"J.	c #282828",
"K.	c #CECECE",
"L.	c #222222",
"M.	c #424242",
"N.	c #3F3F3F",
"O.	c #040404",
"P.	c #A1A1A1",
"Q.	c #090909",
"R.	c #4F4F4F",
"S.	c #010101",
"T.	c #242424",
"U.	c #353535",
"V.	c #0E0E0E",
"W.	c #F8F8F8",
"X.	c #6A6A6A",
"                                                                ",
"                                                                ",
"                  . +               @ #                         ",
"                $ % & * =         - ; > , +                     ",
"                ' ) ! ~ { ] ^   / ( _ : < [ =   : / } |         ",
"                1 2     - 3 4 5 6 7       ! 8 9 0 a b c         ",
"                d     e f   g h i           j d k     l         ",
"                m   n o p q r ~   r } } } + s 8 f t u v         ",
"    w x y y y z A B - C D E [ F G d H I D J   K L M u N         ",
"  2 c O H 2 P Q ' R h S T 9 9 U U V W o X Y Z `  .2 ..c *       ",
"  G c /         +.@.i 1 ; #.` $.%.&.W *.@ e B =.#.-. ...;.#.>.  ",
"  G ,.+.        k '.).!.$.6 c ~.} &.{.].j $ L c ~ I     s ^./.+.",
"  Z c /     (._.7 ~.:.R f <.[.}.|.1.w T ' 2.c ] Y T G !.3.+.4.5.",
"    6.(.    + _._ 7.w 1 , 8.U ~.+ ~ W f 9.0.;.).a.$.E +.    b.L ",
"    7.c.+   %.{.0.! * [.0.d.| o e.0.).f.# c.b.Y {.<.r -     ( *.",
"    q c  .@.  J t ~ g.B h.j F i.L {.e $.m d | ].t ' j.@.+ 1 k.@.",
"  %.9 F w & B / 2.d.Q i P B l.m.` h _.2 ;.7 n.@ @ r i f 4.o.!.  ",
"Z p.F   j.q.> [ ) ;.,.r.s.s.7._ , [ *.0.A t.u.3 7.;.r.6 t.Z     ",
"7.v.    w.@ f c.x.T Q y.{.z., w J @ r ! Y < & b 3 a.=   1 ~.    ",
"A.B   B.<.2.C.8.^ f * 1 D.h.0.$.z.w.Q b.E.+.~.F.| d.B.  ^ ,.@.  ",
"g G.H.$.$.$.I.  . W } w {.~.0.j.J.F 8.@ h.#.K.L.w 2.      :.e   ",
"  |.~ m.m.M.]     = 1 T h.M |.z.8 w #.).~.~ j.y }         N.g.  ",
"          @ 5.    ].u (.e G j O.#., D.).P.8.v.Y o.f + @.D Q.B.  ",
"          G ; s           0.h R.].:.r @ _ X 2.].c S.N a , P     ",
"            T.E       |.[ =.D (.t 7.| q J P f : U.|.:           ",
"            W m ^ s ..6.c (.  2.+.d.A.i     +.  }.2.            ",
"            s V.9 0 c l.y.> W.      ~.9 +.      X.7             ",
"              d.; _ i.    Y 7.    +.7.c M.+.    5.7             ",
"                W.        + /.< {.r.K o {.r., [ c /             ",
"                            +.^.c '.i     !.w k.( $             ",
"                                                                ",
"                                                                "};
