/* XPM */
static char * exit_xpm[] = {
"32 32 630 2",
"  	c #FFFFFF",
". 	c #FFFEFE",
"+ 	c #FFFDFD",
"@ 	c #FFFCFC",
"# 	c #FFFCFB",
"$ 	c #FFFBFB",
"% 	c #FFF9F9",
"& 	c #FFF7F6",
"* 	c #FEF5F5",
"= 	c #FEF4F4",
"- 	c #FFF6F6",
"; 	c #FFF8F8",
"> 	c #FFFAFA",
", 	c #FEFDFD",
"' 	c #FEFEFE",
") 	c #FEF0EF",
"! 	c #FEEDEC",
"~ 	c #FEEAE9",
"{ 	c #FEE9E8",
"] 	c #FEEAE8",
"^ 	c #FEECEB",
"/ 	c #FEEFEE",
"( 	c #FEF3F2",
"_ 	c #FDF4F4",
": 	c #FBF3F3",
"< 	c #FCF3F3",
"[ 	c #F8F3F3",
"} 	c #F1EDED",
"| 	c #F0EDED",
"1 	c #F8F8F8",
"2 	c #FCFBFB",
"3 	c #FBF8F8",
"4 	c #FBFBFB",
"5 	c #FDFDFD",
"6 	c #F7F7F7",
"7 	c #FDFCFC",
"8 	c #FBF7F7",
"9 	c #F6ECEC",
"0 	c #F4E3E2",
"a 	c #F5E2E1",
"b 	c #FBE3E1",
"c 	c #FDE1DE",
"d 	c #FDDFDB",
"e 	c #FDDEDA",
"f 	c #FDE0DC",
"g 	c #FDE3E0",
"h 	c #FCE6E4",
"i 	c #FDDFDE",
"j 	c #FDD7D4",
"k 	c #FDD7D3",
"l 	c #F8D2CF",
"m 	c #FBC1B7",
"n 	c #FAC1B6",
"o 	c #F5E3E3",
"p 	c #FAF4F4",
"q 	c #FEE2E0",
"r 	c #FDDCD8",
"s 	c #FEE7E5",
"t 	c #F1E9E9",
"u 	c #FCD3D1",
"v 	c #FAD6D5",
"w 	c #FBEAEA",
"x 	c #F6DEDE",
"y 	c #E5BEBD",
"z 	c #FAAEAA",
"A 	c #FABBB6",
"B 	c #FBCBC7",
"C 	c #FAD3CB",
"D 	c #FDD3CA",
"E 	c #FDD3C8",
"F 	c #FDD4CB",
"G 	c #FDD7D1",
"H 	c #FDD3CE",
"I 	c #FCC4BC",
"J 	c #FCC9AE",
"K 	c #FDD5A9",
"L 	c #FBC0A8",
"M 	c #FCD68E",
"N 	c #FCDD8D",
"O 	c #FCCAC5",
"P 	c #F8EFEF",
"Q 	c #FAF9F9",
"R 	c #FDE2E0",
"S 	c #FDD1BB",
"T 	c #FDDCA6",
"U 	c #FDD9C2",
"V 	c #FBCDC9",
"W 	c #FAD59A",
"X 	c #FCD1A2",
"Y 	c #FDD0CE",
"Z 	c #EDC1BD",
"` 	c #F8988A",
" .	c #FBBE6E",
"..	c #FCB587",
"+.	c #FCB3A7",
"@.	c #FDC6B5",
"#.	c #FBD0BA",
"$.	c #FDD1B9",
"%.	c #FDCFBC",
"&.	c #FBCDBF",
"*.	c #FCC0B6",
"=.	c #FCBBA5",
"-.	c #FDE183",
";.	c #FCEF75",
">.	c #FDDA81",
",.	c #FCBE89",
"'.	c #FCC791",
").	c #FCC7B8",
"!.	c #FADCD9",
"~.	c #FFF4F4",
"{.	c #FAF6F6",
"].	c #FDDAD4",
"^.	c #FDE79F",
"/.	c #FCF49A",
"(.	c #FDEAAA",
"_.	c #FCD0C7",
":.	c #FBEAB0",
"<.	c #FDE2AA",
"[.	c #FCC5C0",
"}.	c #F1B9A8",
"|.	c #FBA473",
"1.	c #FDD364",
"2.	c #FBC175",
"3.	c #FBAB8F",
"4.	c #FCC2A0",
"5.	c #FBD6A7",
"6.	c #FDDEA8",
"7.	c #FDDDA9",
"8.	c #FDD7AD",
"9.	c #FCCFB0",
"0.	c #FBB9A7",
"a.	c #FCB998",
"b.	c #FBE67B",
"c.	c #FDF295",
"d.	c #FBE578",
"e.	c #FBBF87",
"f.	c #FAD576",
"g.	c #FAE794",
"h.	c #FDD3C2",
"i.	c #FEE8E7",
"j.	c #FEE0B7",
"k.	c #FDF1A3",
"l.	c #FEE6C0",
"m.	c #FCE2DF",
"n.	c #FBE3DF",
"o.	c #FDD1CB",
"p.	c #FAC5B9",
"q.	c #F8CB93",
"r.	c #F6D455",
"s.	c #F4CF49",
"t.	c #F7C260",
"u.	c #F5B37B",
"v.	c #F9C283",
"w.	c #FDDC84",
"x.	c #FCE57F",
"y.	c #FDE582",
"z.	c #FEE191",
"A.	c #FBD89F",
"B.	c #FDC1A0",
"C.	c #FBAE94",
"D.	c #FACA89",
"E.	c #FBDF81",
"F.	c #FCCF90",
"G.	c #FCCA87",
"H.	c #FDE997",
"I.	c #FCEF7C",
"J.	c #FDD4B9",
"K.	c #FEE5E4",
"L.	c #FBFAFA",
"M.	c #FDF2F1",
"N.	c #FEE2DD",
"O.	c #FEE1D6",
"P.	c #FEE7E2",
"Q.	c #FEF6F6",
"R.	c #FCBEA9",
"S.	c #F9D379",
"T.	c #F4E177",
"U.	c #FBD479",
"V.	c #F9C24F",
"W.	c #FCB161",
"X.	c #F8BC5C",
"Y.	c #FAE25E",
"Z.	c #FBF069",
"`.	c #FDF167",
" +	c #FDEA68",
".+	c #FDDF86",
"++	c #FBCE97",
"@+	c #FAAE91",
"#+	c #FBAE79",
"$+	c #FBA885",
"%+	c #FCB4A5",
"&+	c #FCC9A7",
"*+	c #FBE798",
"=+	c #FDE2A8",
"-+	c #FDD5C8",
";+	c #FCFCFC",
">+	c #FDCECB",
",+	c #FAB094",
"'+	c #F9C669",
")+	c #FAC661",
"!+	c #FBBB5B",
"~+	c #FBB93B",
"{+	c #FBAD44",
"]+	c #F9B646",
"^+	c #F9DF77",
"/+	c #FEF695",
"(+	c #FFF791",
"_+	c #FBF16D",
":+	c #F8E167",
"<+	c #FACF88",
"[+	c #F7B38E",
"}+	c #FAAD7B",
"|+	c #F9A790",
"1+	c #FDC7C4",
"2+	c #FBCDC8",
"3+	c #FDD3C7",
"4+	c #FDD8D0",
"5+	c #FDE4E3",
"6+	c #FBF2F2",
"7+	c #FDCAC6",
"8+	c #F9AF86",
"9+	c #FBB755",
"0+	c #FBB23E",
"a+	c #FCCC33",
"b+	c #FBEB4D",
"c+	c #FCD837",
"d+	c #FBB642",
"e+	c #FCCB70",
"f+	c #F9EA9A",
"g+	c #FAF49C",
"h+	c #F8EA7B",
"i+	c #FDD655",
"j+	c #FCC070",
"k+	c #F8AE80",
"l+	c #F0A08B",
"m+	c #F2B3A8",
"n+	c #FCD2CE",
"o+	c #FEE1E0",
"p+	c #FEEAEA",
"q+	c #FDFBFB",
"r+	c #FEF3F1",
"s+	c #FFFDFC",
"t+	c #F8BDB9",
"u+	c #F4AB7F",
"v+	c #F9A950",
"w+	c #FA9C3F",
"x+	c #FCCD40",
"y+	c #FDEB8E",
"z+	c #FBE34F",
"A+	c #FBC03F",
"B+	c #FDCA67",
"C+	c #F7E492",
"D+	c #F6EC94",
"E+	c #FDD76C",
"F+	c #F9C145",
"G+	c #F7B05A",
"H+	c #F6A469",
"I+	c #F79A7C",
"J+	c #F6AB9F",
"K+	c #FACAC6",
"L+	c #FCEBEA",
"M+	c #FEC5BC",
"N+	c #FFF4F1",
"O+	c #F4EBEB",
"P+	c #F6BDB2",
"Q+	c #FBA88F",
"R+	c #FA9D7A",
"S+	c #F8BC5B",
"T+	c #FA954D",
"U+	c #FCA652",
"V+	c #FAD45A",
"W+	c #FDD857",
"X+	c #F3CB43",
"Y+	c #EED45F",
"Z+	c #F1E87D",
"`+	c #FBE273",
" @	c #F8C742",
".@	c #F7B232",
"+@	c #FBBF3A",
"@@	c #FABC49",
"#@	c #FBA065",
"$@	c #FA9C8A",
"%@	c #FABDB7",
"&@	c #FBDFDE",
"*@	c #FFF3F3",
"=@	c #FEEEEB",
"-@	c #FDF3C3",
";@	c #F4E6E2",
">@	c #FCCF9D",
",@	c #FCDB77",
"'@	c #FAA66B",
")@	c #FADF7F",
"!@	c #FBAB5D",
"~@	c #FA926E",
"{@	c #F8B876",
"]@	c #FCD16F",
"^@	c #FBD44E",
"/@	c #FBD73D",
"(@	c #FAD443",
"_@	c #FAD946",
":@	c #F9BB2D",
"<@	c #FCB522",
"[@	c #FBC846",
"}@	c #FBC366",
"|@	c #FAAC55",
"1@	c #FA977A",
"2@	c #FCB1AA",
"3@	c #FDD8D6",
"4@	c #FEF2F2",
"5@	c #FFF4F3",
"6@	c #FCEDEB",
"7@	c #F9DCBA",
"8@	c #F6C38E",
"9@	c #F59781",
"0@	c #F7AA6F",
"a@	c #F9997A",
"b@	c #F4A489",
"c@	c #F9BF89",
"d@	c #FCD17A",
"e@	c #F7D35D",
"f@	c #FBC94D",
"g@	c #F8CA55",
"h@	c #F9D45F",
"i@	c #FCB240",
"j@	c #FBAB23",
"k@	c #FBBC40",
"l@	c #FCC253",
"m@	c #FBB94C",
"n@	c #FBA372",
"o@	c #FCADA2",
"p@	c #FDD1CE",
"q@	c #FDEEEE",
"r@	c #FAE2E0",
"s@	c #F9BFAB",
"t@	c #F1B69B",
"u@	c #F1AEA9",
"v@	c #EFABA1",
"w@	c #E3AC95",
"x@	c #EEB98C",
"y@	c #F3C37A",
"z@	c #F1BE5D",
"A@	c #EAB95F",
"B@	c #ECCA6C",
"C@	c #F9CB6B",
"D@	c #FAAA47",
"E@	c #FB9E2A",
"F@	c #FCC333",
"G@	c #FCE339",
"H@	c #FBE349",
"I@	c #FCCC6B",
"J@	c #FCB9A1",
"K@	c #FDCFCA",
"L@	c #FEECEC",
"M@	c #F9D0B8",
"N@	c #F8C7A4",
"O@	c #F5C5C1",
"P@	c #EEB5AD",
"Q@	c #E79584",
"R@	c #FAB07D",
"S@	c #F6AF78",
"T@	c #FBB552",
"U@	c #F9B548",
"V@	c #F9B65C",
"W@	c #F8C15D",
"X@	c #FAAC41",
"Y@	c #FBA53F",
"Z@	c #FCD246",
"`@	c #FDF27F",
" #	c #FEF18E",
".#	c #FCE273",
"+#	c #FDC8A5",
"@#	c #FCD1CC",
"##	c #FEEFED",
"$#	c #F0F0F0",
"%#	c #EAE8E8",
"&#	c #F3F1F1",
"*#	c #F3E2E1",
"=#	c #F1CAC7",
"-#	c #FAC3BB",
";#	c #F5B0A3",
">#	c #FA9B87",
",#	c #FAC68B",
"'#	c #FAAF7F",
")#	c #FCDF5F",
"!#	c #FCE057",
"~#	c #FAC65C",
"{#	c #FAB85E",
"]#	c #FBB167",
"^#	c #FBD065",
"/#	c #F8E679",
"(#	c #F9E789",
"_#	c #FADE8A",
":#	c #FDCDB1",
"<#	c #FDD8D5",
"[#	c #FFF2F1",
"}#	c #F9F5F5",
"|#	c #EADADA",
"1#	c #F9D3C4",
"2#	c #FAE3DE",
"3#	c #F9E0DF",
"4#	c #FACFC5",
"5#	c #FDCFA8",
"6#	c #FBCE91",
"7#	c #F9B991",
"8#	c #F9AB96",
"9#	c #FBAE90",
"0#	c #FCCB7A",
"a#	c #FCCD73",
"b#	c #FCC286",
"c#	c #F8CB8E",
"d#	c #FCBB89",
"e#	c #F4B288",
"f#	c #F8B881",
"g#	c #F8C87C",
"h#	c #F8CB84",
"i#	c #F8C99E",
"j#	c #F8CBBF",
"k#	c #FDE3E1",
"l#	c #FDF5F5",
"m#	c #F6EEEE",
"n#	c #FDE6E6",
"o#	c #F5F0F0",
"p#	c #FAF7F7",
"q#	c #FEEBEB",
"r#	c #FBDFDD",
"s#	c #F6C9C6",
"t#	c #FCC1B7",
"u#	c #FBC9C2",
"v#	c #FBC8C2",
"w#	c #FDCCB4",
"x#	c #FBE981",
"y#	c #FCEF73",
"z#	c #FCDF7F",
"A#	c #FCBB9D",
"B#	c #F8B6A6",
"C#	c #FBBDA7",
"D#	c #FBC3A5",
"E#	c #F7CEAD",
"F#	c #FBC298",
"G#	c #FBC980",
"H#	c #F2A38F",
"I#	c #F8A28D",
"J#	c #FBA48C",
"K#	c #FBA991",
"L#	c #FBB4A7",
"M#	c #FDCBC8",
"N#	c #FAE9E9",
"O#	c #F3EFEF",
"P#	c #EDD2D1",
"Q#	c #FCC9B5",
"R#	c #FDDED5",
"S#	c #FCF7F6",
"T#	c #F9F9F9",
"U#	c #FEE8E8",
"V#	c #FDD5D1",
"W#	c #FCC3B4",
"X#	c #FCBB97",
"Y#	c #FBC5A0",
"Z#	c #FCBCA2",
"`#	c #FBBF9F",
" $	c #FCE77F",
".$	c #FDF497",
"+$	c #FCEA83",
"@$	c #FDC7A8",
"#$	c #FCC2B8",
"$$	c #FACCC2",
"%$	c #F9CDBF",
"&$	c #FBCFBF",
"*$	c #FCBCA7",
"=$	c #FBB78D",
"-$	c #F3A69B",
";$	c #F8AC98",
">$	c #FBB38C",
",$	c #FCB78E",
"'$	c #FCB9A7",
")$	c #FDCCC8",
"!$	c #FCE9E8",
"~$	c #FDD2CD",
"{$	c #FDEFB2",
"]$	c #FEEFD4",
"^$	c #FEF7F6",
"/$	c #FBF4F4",
"($	c #FDDDDB",
"_$	c #FCCBBC",
":$	c #FDD17C",
"<$	c #FCE05B",
"[$	c #FCE05F",
"}$	c #FCD664",
"|$	c #FCD482",
"1$	c #FBBA9D",
"2$	c #FCD69F",
"3$	c #FCEB96",
"4$	c #FDDFA9",
"5$	c #FCCBBB",
"6$	c #FBCAC4",
"7$	c #FCCCBC",
"8$	c #FAC2B9",
"9$	c #F3CEC7",
"0$	c #F5D0CA",
"a$	c #F2C1BB",
"b$	c #F7BCB0",
"c$	c #FCCC9E",
"d$	c #FCE578",
"e$	c #FCE86B",
"f$	c #FDD398",
"g$	c #FCCDC2",
"h$	c #FCE4E3",
"i$	c #F6F5F5",
"j$	c #FAECEB",
"k$	c #FEEBE1",
"l$	c #FEF2EE",
"m$	c #FFF1F1",
"n$	c #FCC9AB",
"o$	c #FCE759",
"p$	c #FEF290",
"q$	c #FCEF6B",
"r$	c #FDE371",
"s$	c #FBDA75",
"t$	c #FABDA7",
"u$	c #FCBFAB",
"v$	c #FAD6C5",
"w$	c #FDD8CD",
"x$	c #FBDAD6",
"y$	c #FDD8CE",
"z$	c #FCEBA8",
"A$	c #FCBE99",
"B$	c #FACBC8",
"C$	c #F9E0DE",
"D$	c #FBD5D2",
"E$	c #FDCBBE",
"F$	c #FDE4A4",
"G$	c #FCF28E",
"H$	c #FDF38A",
"I$	c #FDE591",
"J$	c #FDD1BF",
"K$	c #FDE3E2",
"L$	c #FEFCFC",
"M$	c #FDDDDA",
"N$	c #FCCEB8",
"O$	c #FAE57B",
"P$	c #F9EC80",
"Q$	c #FBE979",
"R$	c #FDDE79",
"S$	c #FCD7A6",
"T$	c #FCC2B6",
"U$	c #FCE69C",
"V$	c #FAD4D0",
"W$	c #FEE0DF",
"X$	c #FBF0EF",
"Y$	c #FDE5E2",
"Z$	c #FDD7BD",
"`$	c #FCC3B8",
" %	c #F1DDDC",
".%	c #FDEFEE",
"+%	c #FCD8CE",
"@%	c #FEE8B7",
"#%	c #FCF4A3",
"$%	c #F9F09B",
"%%	c #FCDB9F",
"&%	c #FCC5B7",
"*%	c #FCE6E6",
"=%	c #FCCABC",
"-%	c #FDCAAB",
";%	c #FDCDA3",
">%	c #FCC4AF",
",%	c #F8CBC1",
"'%	c #EBD4D2",
")%	c #D9BDBB",
"!%	c #F0D0C2",
"~%	c #FCE3B4",
"{%	c #F9F0EF",
"]%	c #FCF9F9",
"^%	c #FAF5F5",
"/%	c #FFF5F4",
"(%	c #FEE6E3",
"_%	c #FEE1CF",
":%	c #F7E0BA",
"<%	c #F5C9A1",
"[%	c #F8BB9E",
"}%	c #FDC6A8",
"|%	c #FCCEBF",
"1%	c #FCE0DD",
"2%	c #F8F1F1",
"3%	c #FCCCB5",
"4%	c #FCC7B5",
"5%	c #FADBD6",
"6%	c #FEDBD7",
"7%	c #F8DCDA",
"8%	c #E4CDCC",
"9%	c #FBD6D2",
"0%	c #FCDCD4",
"a%	c #FED8BD",
"b%	c #FAF2F2",
"c%	c #FBE9E6",
"d%	c #FAC4BB",
"e%	c #FCAA86",
"f%	c #FBCA87",
"g%	c #FBEE73",
"h%	c #FDEA9C",
"i%	c #FDD8C9",
"j%	c #FEEEEE",
"k%	c #E8DFDF",
"l%	c #EDE2E2",
"m%	c #F8F7F7",
"n%	c #F1DBD8",
"o%	c #FEF7D7",
"p%	c #FFF6F5",
"q%	c #F7F5F5",
"r%	c #F3F0EF",
"s%	c #FDCEBC",
"t%	c #FBCC72",
"u%	c #FCDA76",
"v%	c #FDF496",
"w%	c #FCF084",
"x%	c #FEDBC5",
"y%	c #FEEBEA",
"z%	c #FDE0DD",
"A%	c #FCC2A8",
"B%	c #FDCEA4",
"C%	c #FCEA92",
"D%	c #FDE4AD",
"E%	c #FDD9CE",
"F%	c #FEF2F1",
"G%	c #FEE9E9",
"H%	c #FBDAD4",
"I%	c #FDD7CB",
"J%	c #FDD9D1",
"K%	c #FDE8E7",
"L%	c #FFF7F7",
"M%	c #FFF5F5",
"                                                                ",
"                          . + @ @ # # @ + .                     ",
"                      . + $ % & * = = - ; > @ , ' '   '         ",
"                    . @ % = ) ! ~ { ] ^ / ( _ : < [ } | 1 '     ",
"    ' 2 3 4 5 6 1 7 8 9 0 a b c d e e f g h i j k l m n o 4     ",
"  ' p q r s t u v w x y z A B C D E E F G H I J K L M N O P '   ",
"  Q R S T U V W X Y Z `  ...+.@.#.$.$.%.&.*.=.-.;.>.,.'.).!.~.' ",
"  {.].^./.(._.:.<.[.}.|.1.2.3.4.5.6.7.8.9.0.a.b.c.d.e.f.g.h.i.4 ",
"  3 c j.k.l.m.n.o.p.q.r.s.t.u.v.w.x.y.z.A.B.C.D.E.F.G.H.I.J.K.L.",
"  5 M.N.O.P.Q.< v R.S.T.U.V.W.X.Y.Z.`. +.+++@+#+$+%+&+*+=+-+^ ;+",
"    ' > ; $   < >+,+'+)+!+~+{+]+^+/+(+_+:+<+[+}+|+1+2+3+4+5+;   ",
"              6+7+8+9+0+a+b+c+d+e+f+g+h+i+j+k+l+m+n+o+p+~.q+    ",
"    q+r+s+  L.o t+u+v+w+x+y+z+A+B+C+D+E+F+G+H+I+J+K+5+~.        ",
"    L+M+N+  O+P+Q+R+S+T+U+V+W+X+Y+Z+`+ @.@+@@@#@$@%@&@*@        ",
"    =@-@( ' ;@>@,@'@)@!@~@{@]@^@/@(@_@:@<@[@}@|@1@2@3@4@        ",
"    q+5@+ ' 6@7@8@9@0@a@b@c@d@e@f@g@h@i@j@k@l@m@n@o@p@q@        ",
"            3 r@s@t@u@v@w@x@y@z@A@B@C@D@E@F@G@H@I@J@K@L@        ",
"            ' [ M@N@O@P@Q@R@S@T@U@V@W@X@Y@Z@`@ #.#+#@###        ",
"        5 $#%#&#*#=#-#;#>#,#'#)#!#9+~#{#]#^#/#(#_#:#<#[#+ @ '   ",
"    ' 4 }#|#1#2#3#4#5#6#7#8#9#0#a#b#c#d#e#f#g#h#i#j#k#l#m#n#o#;+",
"  ' p#q#r#s#t#u#v#w#x#y#z#A#B#C#D#E#F#G#H#I#J#K#L#M#N#O#P#Q#R#S#",
"  T#U#V#W#a.X#Y#Z#`# $.$+$@$#$$$%$&$*$=$-$;$>$,$'$)$!$$#~${$]$^$",
"' /$($_$:$<$[$}$|$1$2$3$4$5$6$7$8$9$0$a$b$c$d$e$f$g$h$i$j$k$l$@ ",
"' m$<#n$o$p$q$r$s$t$u$v$w$x$y$z$A$B$C$D$E$F$G$H$I$J$K$3 5 L$'   ",
"' *@M$N$O$P$Q$R$S$T$U$V$W$X$Y$Z$`$ %.%K.+%@%#%$%%%&%<#:         ",
"  Q *%=%-%5.;%>%,%'%)%!%~%{%]%q@m#^%> /%(%_%:%<%[%}%|%1%%       ",
"  ' 2%3%4%5%6%7%8%9%} 0%a%b%  ' '     . - c%d%e%f%g%h%i%j%'     ",
"    4 k%l%Q.> m%n%o%p%q%r%;+            ' : s%t%u%v%w%x%y%'     ",
"      '       ' p#& , ' '                 7 z%A%B%C%D%E%F%      ",
"                                            5 G%H%I%J%K%@       ",
"                                              , L%F%M%7         ",
"                                                                "};
