/* XPM */
static char * player_xpm[] = {
"32 32 103 2",
"  	c #FFFFFF",
". 	c #F0F0F0",
"+ 	c #F9F9F9",
"@ 	c #EDEDED",
"# 	c #CACACA",
"$ 	c #A7A7A7",
"% 	c #646464",
"& 	c #D8D8D8",
"* 	c #C1C1C1",
"= 	c #555555",
"- 	c #484848",
"; 	c #5A5A5A",
"> 	c #292929",
", 	c #D9D9D9",
"' 	c #DFDFDF",
") 	c #D2D2D2",
"! 	c #F5F5F5",
"~ 	c #C4C4C4",
"{ 	c #B3B3B3",
"] 	c #303030",
"^ 	c #000000",
"/ 	c #020202",
"( 	c #4F4F4F",
"_ 	c #797979",
": 	c #F6F6F6",
"< 	c #7E7E7E",
"[ 	c #5C5C5C",
"} 	c #6F6F6F",
"| 	c #FCFCFC",
"1 	c #E7E7E7",
"2 	c #BFBFBF",
"3 	c #B1B1B1",
"4 	c #7D7D7D",
"5 	c #585858",
"6 	c #404040",
"7 	c #2F2F2F",
"8 	c #232323",
"9 	c #101010",
"0 	c #363636",
"a 	c #6E6E6E",
"b 	c #C5C5C5",
"c 	c #626262",
"d 	c #1C1C1C",
"e 	c #878787",
"f 	c #CCCCCC",
"g 	c #858585",
"h 	c #4D4D4D",
"i 	c #2B2B2B",
"j 	c #3B3B3B",
"k 	c #7A7A7A",
"l 	c #D5D5D5",
"m 	c #B9B9B9",
"n 	c #212121",
"o 	c #010101",
"p 	c #727272",
"q 	c #9E9E9E",
"r 	c #090909",
"s 	c #373737",
"t 	c #040404",
"u 	c #BDBDBD",
"v 	c #262626",
"w 	c #070707",
"x 	c #393939",
"y 	c #3C3C3C",
"z 	c #141414",
"A 	c #0A0A0A",
"B 	c #A8A8A8",
"C 	c #E2E2E2",
"D 	c #A4A4A4",
"E 	c #777777",
"F 	c #444444",
"G 	c #3F3F3F",
"H 	c #5F5F5F",
"I 	c #8C8C8C",
"J 	c #CFCFCF",
"K 	c #2A2A2A",
"L 	c #1A1A1A",
"M 	c #0B0B0B",
"N 	c #767676",
"O 	c #BBBBBB",
"P 	c #E6E6E6",
"Q 	c #B4B4B4",
"R 	c #171717",
"S 	c #0C0C0C",
"T 	c #131313",
"U 	c #929292",
"V 	c #616161",
"W 	c #B6B6B6",
"X 	c #A2A2A2",
"Y 	c #6C6C6C",
"Z 	c #676767",
"` 	c #939393",
" .	c #2C2C2C",
"..	c #161616",
"+.	c #535353",
"@.	c #545454",
"#.	c #DDDDDD",
"$.	c #B5B5B5",
"%.	c #9B9B9B",
"&.	c #C8C8C8",
"*.	c #F3F3F3",
"=.	c #E9E9E9",
"-.	c #989898",
"                                                                ",
"                                                                ",
"                                                                ",
"                                                                ",
"                                                                ",
"                                                                ",
"                                                                ",
"                                                                ",
"                                                                ",
"                                . +                             ",
"                          @ # $ % &                             ",
"                        * = - ; > ,       + ' )                 ",
"                ! & ~ { ] ^ / ( _ :       < [ } |   1 2 )       ",
"          . 3 4 5 6 7 8 ^ ^ ^ 9 0 a b |   c d e f g h i j k l   ",
"      | m ; n o ^ ^ ^ ^ ^ ^ ^ ^ ^ ^ ] p q p r ; s t ^ ^ ^ o 6 u ",
"    ) < v ^ ^ ^ w x p y ^ r o ^ ^ ^ ^ ^ z A ^ ^ ^ ^ ^ ^ ^ ^ o B ",
"C D E F G ; H ; I J   f K L E 8 ^ ^ ^ ^ ^ ^ ^ ^ A M ^ ^ ^ L N 1 ",
"C D q m l ! + !         O M P Q 5 R ^ ^ o S w T I U V s 5 B +   ",
"                          v W   @ X Y Z _ `  ...O   ! f .       ",
"                          +.@.#.            V - $.              ",
"                          %.] ~             &., *.              ",
"                          =.-.C                                 ",
"                            :                                   ",
"                                                                ",
"                                                                ",
"                                                                ",
"                                                                ",
"                                                                ",
"                                                                ",
"                                                                ",
"                                                                ",
"                                                                "};
