/* XPM */
static char * wall_xpm[] = {
"32 32 835 2",
"  	c #FFFFFF",
". 	c #FDFEFC",
"+ 	c #FFFFFE",
"@ 	c #FCFDFB",
"# 	c #FDFEFD",
"$ 	c #FBFBFA",
"% 	c #FAFAF9",
"& 	c #F8F9F6",
"* 	c #F7F8F6",
"= 	c #F8F9F7",
"- 	c #F6F8F5",
"; 	c #F6F7F5",
"> 	c #F7F9F6",
", 	c #F5F6F3",
"' 	c #F1F3EF",
") 	c #EDF0EA",
"! 	c #EDEFEA",
"~ 	c #F0F3EE",
"{ 	c #FDFDFC",
"] 	c #FBFCF9",
"^ 	c #F6F8F3",
"/ 	c #F8FAF6",
"( 	c #F8FAF7",
"_ 	c #DCE5D3",
": 	c #B5D498",
"< 	c #9AC570",
"[ 	c #A7B89C",
"} 	c #878C82",
"| 	c #778F5E",
"1 	c #748A5C",
"2 	c #6C8059",
"3 	c #7A8D6A",
"4 	c #748C5F",
"5 	c #728A5C",
"6 	c #758D5D",
"7 	c #78925F",
"8 	c #7A935F",
"9 	c #7B9560",
"0 	c #7C9761",
"a 	c #7E9A61",
"b 	c #8FAD73",
"c 	c #B2D391",
"d 	c #B2D88E",
"e 	c #C5DFAB",
"f 	c #CFE4BA",
"g 	c #CFD7C6",
"h 	c #C5D1B9",
"i 	c #D9E2D1",
"j 	c #F2F5EF",
"k 	c #FDFDFD",
"l 	c #F5F7F3",
"m 	c #C5D7B4",
"n 	c #7CB642",
"o 	c #73A544",
"p 	c #8EAA7E",
"q 	c #71756E",
"r 	c #3E5D1F",
"s 	c #4A6F25",
"t 	c #669935",
"u 	c #5D8C2F",
"v 	c #4F7133",
"w 	c #40572B",
"x 	c #39561D",
"y 	c #3C591E",
"z 	c #3C5B1E",
"A 	c #416221",
"B 	c #4B7026",
"C 	c #56812C",
"D 	c #517A29",
"E 	c #73A245",
"F 	c #98CD66",
"G 	c #91C95B",
"H 	c #97CC63",
"I 	c #83BE49",
"J 	c #7DB646",
"K 	c #7EB845",
"L 	c #45612C",
"M 	c #496D24",
"N 	c #D3DCCA",
"O 	c #FEFEFE",
"P 	c #E7ECE2",
"Q 	c #88AC65",
"R 	c #78B33D",
"S 	c #658A41",
"T 	c #5F774D",
"U 	c #616859",
"V 	c #46602C",
"W 	c #699D37",
"X 	c #6DA438",
"Y 	c #669639",
"Z 	c #639239",
"` 	c #51772D",
" .	c #466030",
"..	c #405D21",
"+.	c #486C24",
"@.	c #527B29",
"#.	c #436522",
"$.	c #3D5B1F",
"%.	c #406020",
"&.	c #81B152",
"*.	c #A6D379",
"=.	c #93CA5E",
"-.	c #7CB742",
";.	c #7DB944",
">.	c #6CA437",
",.	c #659833",
"'.	c #485838",
").	c #3A551D",
"!.	c #A0AF90",
"~.	c #F2F5F0",
"{.	c #D5DFCB",
"].	c #669A34",
"^.	c #71A93A",
"/.	c #4C633A",
"(.	c #4F6140",
"_.	c #516240",
":.	c #536245",
"<.	c #5C8437",
"[.	c #5A8435",
"}.	c #4E7528",
"|.	c #517A28",
"1.	c #56812A",
"2.	c #496A2B",
"3.	c #49682B",
"4.	c #55802B",
"5.	c #5F9030",
"6.	c #74A445",
"7.	c #94CA5F",
"8.	c #94CA5E",
"9.	c #8CC456",
"0.	c #72AB3B",
"a.	c #5F8F30",
"b.	c #56812B",
"c.	c #4B5F3A",
"d.	c #405F23",
"e.	c #556945",
"f.	c #CDD6C4",
"g.	c #FAFBF9",
"h.	c #A8B897",
"i.	c #5A862D",
"j.	c #566F3F",
"k.	c #73AA3C",
"l.	c #66943B",
"m.	c #5D8638",
"n.	c #5B7B3E",
"o.	c #547E2B",
"p.	c #456823",
"q.	c #496E25",
"r.	c #4C7226",
"s.	c #537C2A",
"t.	c #527B2A",
"u.	c #496332",
"v.	c #507829",
"w.	c #629331",
"x.	c #6A9D39",
"y.	c #76B03E",
"z.	c #74AE3B",
"A.	c #7EBB43",
"B.	c #78B43E",
"C.	c #74AE3C",
"D.	c #6EA538",
"E.	c #57822C",
"F.	c #4B6C2C",
"G.	c #47622F",
"H.	c #45622C",
"I.	c #93A287",
"J.	c #F9FAF9",
"K.	c #F4F7F2",
"L.	c #5F724F",
"M.	c #44622B",
"N.	c #648148",
"O.	c #75A944",
"P.	c #5C8B2F",
"Q.	c #57832E",
"R.	c #4D712A",
"S.	c #619231",
"T.	c #629432",
"U.	c #446622",
"V.	c #476A24",
"W.	c #4A692F",
"X.	c #556C41",
"Y.	c #436125",
"Z.	c #547E2A",
"`.	c #77AD43",
" +	c #75B03C",
".+	c #71AA3A",
"++	c #689D35",
"@+	c #609030",
"#+	c #5C8A2E",
"$+	c #557F2B",
"%+	c #69973B",
"&+	c #88BE54",
"*+	c #495D38",
"=+	c #4B6533",
"-+	c #7D9369",
";+	c #EFF0ED",
">+	c #F1F7EB",
",+	c #48573A",
"'+	c #56723F",
")+	c #55713D",
"!+	c #6BA037",
"~+	c #689F34",
"{+	c #588430",
"]+	c #3E5A21",
"^+	c #466823",
"/+	c #507828",
"(+	c #58852D",
"_+	c #5A872D",
":+	c #4D702E",
"<+	c #8AB85D",
"[+	c #83AE59",
"}+	c #5C8533",
"|+	c #8DBC5F",
"1+	c #92C95C",
"2+	c #8CC753",
"3+	c #88C34E",
"4+	c #7DB942",
"5+	c #6FA33D",
"6+	c #84BC4E",
"7+	c #88C34F",
"8+	c #6D8652",
"9+	c #7EAD4F",
"0+	c #8BBC5B",
"a+	c #EEF4E7",
"b+	c #E8EFE1",
"c+	c #445535",
"d+	c #455C31",
"e+	c #56703F",
"f+	c #629233",
"g+	c #6BA136",
"h+	c #4D6935",
"i+	c #3F5E20",
"j+	c #466924",
"k+	c #496D25",
"l+	c #5A7345",
"m+	c #9BCE69",
"n+	c #97C66A",
"o+	c #6C8B4D",
"p+	c #5D8B30",
"q+	c #87C14E",
"r+	c #81BE45",
"s+	c #79B63E",
"t+	c #70A53C",
"u+	c #7CB04A",
"v+	c #8BC553",
"w+	c #83C047",
"x+	c #81BF45",
"y+	c #82BF48",
"z+	c #92CA5C",
"A+	c #93C95E",
"B+	c #719E49",
"C+	c #87BF51",
"D+	c #EFF7E8",
"E+	c #F3F8EF",
"F+	c #67824D",
"G+	c #495A3A",
"H+	c #496431",
"I+	c #56802E",
"J+	c #639432",
"K+	c #6AA036",
"L+	c #648E3F",
"M+	c #3D5426",
"N+	c #3A571D",
"O+	c #405F20",
"P+	c #3F5F20",
"Q+	c #416121",
"R+	c #5F744B",
"S+	c #A3D174",
"T+	c #A4D076",
"U+	c #92BC68",
"V+	c #83A561",
"W+	c #71A53F",
"X+	c #71A93B",
"Y+	c #80B84B",
"Z+	c #8EC856",
"`+	c #88C54E",
" @	c #82C046",
".@	c #81C045",
"+@	c #7DBA41",
"@@	c #8AC451",
"#@	c #89C54E",
"$@	c #8BC552",
"%@	c #77A34D",
"&@	c #78AE45",
"*@	c #E2F1D5",
"=@	c #FAFBF8",
"-@	c #547935",
";@	c #5F843D",
">@	c #567438",
",@	c #618C37",
"'@	c #6A9B39",
")@	c #649733",
"!@	c #639633",
"~@	c #557835",
"{@	c #36501D",
"]@	c #436422",
"^@	c #4E633D",
"/@	c #A3D275",
"(@	c #A8D47C",
"_@	c #AAD380",
":@	c #9EC875",
"<@	c #79A151",
"[@	c #7EBA44",
"}@	c #83BF49",
"|@	c #90C959",
"1@	c #8EC756",
"2@	c #7EBC42",
"3@	c #7CBA40",
"4@	c #7BB641",
"5@	c #87C24F",
"6@	c #7FBD43",
"7@	c #73AD3A",
"8@	c #629336",
"9@	c #E7F0DE",
"0@	c #FBFCFA",
"a@	c #69993C",
"b@	c #6DA537",
"c@	c #6DA538",
"d@	c #6FA838",
"e@	c #71AA39",
"f@	c #689E35",
"g@	c #5C8A2F",
"h@	c #4F6E33",
"i@	c #445C2D",
"j@	c #3B5620",
"k@	c #3B581E",
"l@	c #324B1B",
"m@	c #9CC077",
"n@	c #AED785",
"o@	c #ADD785",
"p@	c #93BA6D",
"q@	c #7E9E60",
"r@	c #79A84B",
"s@	c #91C35F",
"t@	c #8EC15B",
"u@	c #6CA337",
"v@	c #85C14A",
"w@	c #86C24B",
"x@	c #72AB3A",
"y@	c #5F8739",
"z@	c #7AAF46",
"A@	c #E4EFD9",
"B@	c #F9FBF6",
"C@	c #77B33D",
"D@	c #78B43D",
"E@	c #79B63D",
"F@	c #70A939",
"G@	c #6FA839",
"H@	c #6FA738",
"I@	c #5F8C34",
"J@	c #537E2B",
"K@	c #466627",
"L@	c #3A5026",
"M@	c #434D3A",
"N@	c #ADD385",
"O@	c #A6CB81",
"P@	c #7E9466",
"Q@	c #8BA86F",
"R@	c #9FC777",
"S@	c #99BE73",
"T@	c #90B46C",
"U@	c #90B36D",
"V@	c #85A962",
"W@	c #5D8537",
"X@	c #86C34B",
"Y@	c #7DBA42",
"Z@	c #5B8532",
"`@	c #628E3A",
" #	c #85BD4E",
".#	c #E6F2DA",
"+#	c #F8FAF5",
"@#	c #5F7D44",
"##	c #7BB740",
"$#	c #82BF47",
"%#	c #7DB843",
"&#	c #78B33E",
"*#	c #74AF3B",
"=#	c #77B23D",
"-#	c #73AE3A",
";#	c #6EA638",
">#	c #6CA236",
",#	c #3A4B2B",
"'#	c #2B4018",
")#	c #304718",
"!#	c #354329",
"~#	c #324620",
"{#	c #354F1D",
"]#	c #364E1E",
"^#	c #57664A",
"/#	c #A9CE82",
"(#	c #AAD281",
"_#	c #AAD282",
":#	c #A5CD7C",
"<#	c #80A061",
"[#	c #5C8336",
"}#	c #627F44",
"|#	c #536C3A",
"1#	c #547C30",
"2#	c #77A848",
"3#	c #D8DCD4",
"4#	c #729C4B",
"5#	c #517334",
"6#	c #607B49",
"7#	c #729E48",
"8#	c #89C550",
"9#	c #83BF48",
"0#	c #7CBA41",
"a#	c #88C44E",
"b#	c #86C34A",
"c#	c #85C349",
"d#	c #83BE4A",
"e#	c #3F5D22",
"f#	c #416023",
"g#	c #445733",
"h#	c #38531C",
"i#	c #3D5B1E",
"j#	c #456723",
"k#	c #3E4A34",
"l#	c #97B57A",
"m#	c #AFD887",
"n#	c #AFD686",
"o#	c #A4CB7D",
"p#	c #577142",
"q#	c #476B24",
"r#	c #3C5527",
"s#	c #4E6835",
"t#	c #55703B",
"u#	c #40572C",
"v#	c #DDE1D8",
"w#	c #FEFEFD",
"x#	c #7CAC4C",
"y#	c #689B36",
"z#	c #5A8531",
"A#	c #56723E",
"B#	c #617B4C",
"C#	c #82AC59",
"D#	c #95CB62",
"E#	c #89C54F",
"F#	c #84C148",
"G#	c #7FBB44",
"H#	c #416123",
"I#	c #416222",
"J#	c #465935",
"K#	c #4A6E25",
"L#	c #5D8D30",
"M#	c #619331",
"N#	c #54802A",
"O#	c #3F5C26",
"P#	c #758963",
"Q#	c #A9CE83",
"R#	c #A8CC84",
"S#	c #507630",
"T#	c #609231",
"U#	c #4E732C",
"V#	c #50782C",
"W#	c #547335",
"X#	c #DDE2D9",
"Y#	c #82BD48",
"Z#	c #76AC43",
"`#	c #848981",
" $	c #8E9788",
".$	c #5F7450",
"+$	c #5C6F4C",
"@$	c #86AC63",
"#$	c #85BC51",
"$$	c #8DC458",
"%$	c #637F48",
"&$	c #35501A",
"*$	c #3E5E20",
"=$	c #3B591F",
"-$	c #4F6A33",
";$	c #5D8B2F",
">$	c #639532",
",$	c #669934",
"'$	c #699E35",
")$	c #629531",
"!$	c #466A23",
"~$	c #405C26",
"{$	c #486A2B",
"]$	c #5E8E2F",
"^$	c #679B34",
"/$	c #69A036",
"($	c #5D8C32",
"_$	c #699F35",
":$	c #D4D9D0",
"<$	c #7EB748",
"[$	c #50752F",
"}$	c #6A6F65",
"|$	c #849C6F",
"1$	c #83A166",
"2$	c #7A9B5B",
"3$	c #739353",
"4$	c #708E54",
"5$	c #567C34",
"6$	c #50772B",
"7$	c #394C28",
"8$	c #3A561D",
"9$	c #426221",
"0$	c #435831",
"a$	c #679C34",
"b$	c #5A872E",
"c$	c #5F8E2F",
"d$	c #679B35",
"e$	c #5C8931",
"f$	c #6AA136",
"g$	c #E3E9DC",
"h$	c #88B65C",
"i$	c #4B6434",
"j$	c #48563D",
"k$	c #9CCF6B",
"l$	c #9ACE68",
"m$	c #97CC65",
"n$	c #9ACC6A",
"o$	c #9ECD6F",
"p$	c #94C566",
"q$	c #8FC05F",
"r$	c #81BD46",
"s$	c #66903D",
"t$	c #374D24",
"u$	c #38551C",
"v$	c #344D1D",
"w$	c #4E7527",
"x$	c #609130",
"y$	c #5F8E30",
"z$	c #669834",
"A$	c #619031",
"B$	c #659934",
"C$	c #679A38",
"D$	c #65943A",
"E$	c #5E8D30",
"F$	c #EBF1E5",
"G$	c #FEFFFE",
"H$	c #5B892F",
"I$	c #344327",
"J$	c #647555",
"K$	c #9FD06F",
"L$	c #A5D378",
"M$	c #9FD071",
"N$	c #9DCE6D",
"O$	c #A3D176",
"P$	c #93CA5D",
"Q$	c #85C24A",
"R$	c #6EA03E",
"S$	c #42582D",
"T$	c #3A571E",
"U$	c #314918",
"V$	c #496828",
"W$	c #59862D",
"X$	c #649833",
"Y$	c #5E8F2F",
"Z$	c #619135",
"`$	c #638F3C",
" %	c #384929",
".%	c #6B7E5A",
"+%	c #A6D378",
"@%	c #A3D274",
"#%	c #A7D47A",
"$%	c #A2D274",
"%%	c #A4D276",
"&%	c #9ED06E",
"*%	c #94CB60",
"=%	c #85C04C",
"-%	c #70924E",
";%	c #3E4932",
">%	c #233513",
",%	c #546F39",
"'%	c #5E8E30",
")%	c #619130",
"!%	c #72A341",
"~%	c #77AD42",
"{%	c #E7F0DF",
"]%	c #486A27",
"^%	c #608143",
"/%	c #709153",
"(%	c #ACD682",
"_%	c #A5D377",
":%	c #A9D57D",
"<%	c #92C85E",
"[%	c #7BA751",
"}%	c #4A6134",
"|%	c #67874A",
"1%	c #649632",
"2%	c #59852D",
"3%	c #517929",
"4%	c #537B2D",
"5%	c #77A649",
"6%	c #71AA3B",
"7%	c #DFE1DE",
"8%	c #E6E8E2",
"9%	c #3D532A",
"0%	c #6B9A3E",
"a%	c #5F8E33",
"b%	c #99C072",
"c%	c #ACD683",
"d%	c #A9D47F",
"e%	c #A7D37B",
"f%	c #AAD67F",
"g%	c #AAD57F",
"h%	c #A9D57E",
"i%	c #A1D172",
"j%	c #86B857",
"k%	c #2E3D23",
"l%	c #6DA339",
"m%	c #76AB43",
"n%	c #5B7B3D",
"o%	c #446128",
"p%	c #3E5A22",
"q%	c #496331",
"r%	c #4B7126",
"s%	c #4C6733",
"t%	c #3E4F30",
"u%	c #526043",
"v%	c #E0E4DD",
"w%	c #EDF3E8",
"x%	c #6B9D3B",
"y%	c #6B9E3B",
"z%	c #5F873D",
"A%	c #95BD6D",
"B%	c #8CB665",
"C%	c #82A85E",
"D%	c #93BB6E",
"E%	c #ADD783",
"F%	c #ABD680",
"G%	c #97C669",
"H%	c #4C5D3D",
"I%	c #537532",
"J%	c #669B34",
"K%	c #70A83B",
"L%	c #73AA3E",
"M%	c #77AA46",
"N%	c #6C9845",
"O%	c #698E46",
"P%	c #527732",
"Q%	c #495F36",
"R%	c #3E522B",
"S%	c #3A4C29",
"T%	c #475C37",
"U%	c #5B7248",
"V%	c #638247",
"W%	c #D9E2D2",
"X%	c #EBF3E3",
"Y%	c #5B892D",
"Z%	c #3F4E33",
"`%	c #629332",
" &	c #537B2B",
".&	c #668E3D",
"+&	c #9BCB6C",
"@&	c #8CBC5E",
"#&	c #759F51",
"$&	c #A3CD7B",
"%&	c #AED784",
"&&	c #9BC671",
"*&	c #59763F",
"=&	c #314025",
"-&	c #4B7027",
";&	c #689B3A",
">&	c #4F7033",
",&	c #4F6E34",
"'&	c #5B8830",
")&	c #4F7626",
"!&	c #5B8C2F",
"~&	c #5B7941",
"{&	c #56773A",
"]&	c #598330",
"^&	c #58842D",
"/&	c #D9E3CF",
"(&	c #F0F8E9",
"_&	c #6EA13D",
":&	c #3D5B20",
"<&	c #3D502D",
"[&	c #49682A",
"}&	c #3F5D20",
"|&	c #85B159",
"1&	c #A2D174",
"2&	c #97CB65",
"3&	c #84BB4E",
"4&	c #63913B",
"5&	c #8BAC6C",
"6&	c #ACD584",
"7&	c #B0D887",
"8&	c #9CC574",
"9&	c #5F873B",
"0&	c #2A3F16",
"a&	c #28351C",
"b&	c #495E37",
"c&	c #4E6B34",
"d&	c #4C7027",
"e&	c #57832D",
"f&	c #547E2D",
"g&	c #57832C",
"h&	c #639634",
"i&	c #678B48",
"j&	c #577A38",
"k&	c #659635",
"l&	c #4F7628",
"m&	c #E9EEE4",
"n&	c #E8F3DE",
"o&	c #739C49",
"p&	c #3A5422",
"q&	c #3E5828",
"r&	c #4F6539",
"s&	c #70A63B",
"t&	c #7FB050",
"u&	c #99CD66",
"v&	c #8CC555",
"w&	c #4E742A",
"x&	c #6A8651",
"y&	c #98C36F",
"z&	c #91C463",
"A&	c #7DB448",
"B&	c #324A19",
"C&	c #263617",
"D&	c #506B3A",
"E&	c #4D712C",
"F&	c #4C6B2A",
"G&	c #456527",
"H&	c #4D7427",
"I&	c #547B30",
"J&	c #61883E",
"K&	c #5F9031",
"L&	c #638942",
"M&	c #91C85B",
"N&	c #88C151",
"O&	c #6B9B3C",
"P&	c #F6F9F4",
"Q&	c #A7B49A",
"R&	c #436421",
"S&	c #4B7025",
"T&	c #37521D",
"U&	c #597440",
"V&	c #74AB3F",
"W&	c #98CD65",
"X&	c #7FBA45",
"Y&	c #55812B",
"Z&	c #7EB947",
"`&	c #83BA4D",
" *	c #8AC353",
".*	c #81BC46",
"+*	c #374F1F",
"@*	c #38492B",
"#*	c #578231",
"$*	c #517234",
"%*	c #587739",
"&*	c #588032",
"**	c #60873E",
"=*	c #577B39",
"-*	c #58842C",
";*	c #7B9F5A",
">*	c #8FC858",
",*	c #90C859",
"'*	c #EAEFE7",
")*	c #9CAE8A",
"!*	c #516A3C",
"~*	c #7DB844",
"{*	c #4C7327",
"]*	c #566F3E",
"^*	c #587441",
"/*	c #5A7C3B",
"(*	c #5E8A33",
"_*	c #3C4B31",
":*	c #4E6936",
"<*	c #486530",
"[*	c #546742",
"}*	c #476926",
"|*	c #4C6935",
"1*	c #547537",
"2*	c #738D5A",
"3*	c #B9D79C",
"4*	c #B8C6AD",
"5*	c #4F7729",
"6*	c #567A36",
"7*	c #8CC654",
"8*	c #7DB943",
"9*	c #516F32",
"0*	c #577B35",
"a*	c #5F863D",
"b*	c #507134",
"c*	c #334C1A",
"d*	c #314819",
"e*	c #354325",
"f*	c #293F17",
"g*	c #3C4E2D",
"h*	c #425134",
"i*	c #4A6832",
"j*	c #435A2F",
"k*	c #364528",
"l*	c #4F5B44",
"m*	c #56723B",
"n*	c #405A28",
"o*	c #426222",
"p*	c #486C25",
"q*	c #395520",
"r*	c #6C8159",
"s*	c #8CA374",
"t*	c #E1E4DF",
"u*	c #F3F4F2",
"v*	c #E0E5DB",
"w*	c #CDD9C0",
"x*	c #ACC693",
"y*	c #6D9940",
"z*	c #80BB45",
"A*	c #76B03F",
"B*	c #79B53F",
"C*	c #6A9E38",
"D*	c #52772D",
"E*	c #434C39",
"F*	c #364D1F",
"G*	c #334D1C",
"H*	c #41552C",
"I*	c #4A6038",
"J*	c #576C45",
"K*	c #62853E",
"L*	c #7AB540",
"M*	c #7BAA4D",
"N*	c #729C4C",
"O*	c #6A8B49",
"P*	c #566D41",
"Q*	c #6F7F60",
"R*	c #E2E4E0",
"S*	c #FCFEFB",
"T*	c #FDFEFB",
"U*	c #FAFCF8",
"V*	c #F3F8EE",
"W*	c #ECF1E6",
"X*	c #EAEDE7",
"Y*	c #EBEDE9",
"Z*	c #E8EBE5",
"`*	c #E8ECE5",
" =	c #E7E8E6",
".=	c #EEF3E9",
"+=	c #F0F6EA",
"@=	c #E8F1DF",
"#=	c #F2F8EC",
"$=	c #F1F6ED",
"%=	c #EFF5E9",
"  . + @ # $ % & & * = - - ; & > * * , ' ) ! ! ~ & { ] ^ @   /   ",
"(   _ : < [ } | 1 2 3 4 5 6 7 8 9 0 8 a 0 b c d e f g h i j   k ",
"l l m n o p q r s t u v w x y z A B C D E F G H I J K L M N { O ",
"  P Q R S T U V W X Y Z `  ...+.@.#.$.%.&.*.=.-.;.>.,.'.).!.~.O ",
"k {.].^./.(._.:.<.[.}.|.1.D 2.3.%.s 4.5.6.7.8.9.0.a.b.c.d.e.f.g.",
"$ h.i.j.k.l.m.n.o.p.q.r.s.t.q.u.s v.w.x.y.z.A.B.C.D.E.F.G.H.I.J.",
"K.L.M.N.O.P.Q.R.S.T.4.+.U.V.W.X.Y.Z.`.9. +.+++@+#+$+%+&+*+=+-+;+",
">+,+'+)+!+~+{+]+^+q./+(+_+:+<+[+}+w.|+1+2+3+4+D.5+6+7+=.8+9+0+a+",
"b+c+d+e+@+f+g+h+i+j+B k+B l+m+n+o+p+q+r+s+t+u+v+w+x+y+z+A+B+C+D+",
"E+F+G+H+I+J+K+L+M+N+O+P+Q+R+S+T+U+V+W+X+Y+Z+`+ @.@+@@@#@$@%@&@*@",
"=@-@;@>@,@'@)@!@~@{@y A ]@^@/@(@_@:@<@[@}@|@1@2@3@4@5@6@7@].8@9@",
"0@a@b@c@d@e@f@,.g@h@i@j@k@l@m@n@o@_@p@q@r@s@t@!+u@0.v@w@x@y@z@A@",
"B@S C@D@E@F@G@G@H@)@I@J@K@L@M@N@O@P@Q@R@S@T@U@V@W@D.X@Y@Z@`@ #.#",
"+#@###$#%#&#A.*#=#-#;#>#,#'#)#!#~#{#]#^#/#(#_#:#<#[#}#|#1#g+2#3#",
"{ 4#5#6#7#8#9#0#a#b#c#d#e#f#g#h#i#P+j#N+k#l#m#n#o#p#q#r#s#t#u#v#",
"w#x#y#z#A#B#C#D#G E#F#G#H#k+I#J#$.K#L#M#N#O#P#Q#R#S#P.T#U#V#W#X#",
"w#Y#v+Z#`# $.$+$@$#$$$%$&$O+*$=$-$;$>$,$'$)$!$~${$]$^$/$5.($_$:$",
". D#<$[$}$|$1$2$3$4$5$6$7$8$A 9$0$u )@,.a$b$c$].,.)@'$;#d$e$f$g$",
"w#h$i$j$k$l$m$n$o$p$q$r$s$t$u$k@v$w$x$y$;$b.K+z$A$,.B$C$D$E$>$F$",
"G$H$I$J$m+K$*.L$M$N$O$P$Q$R$S$T$U$V$k+D a.W$^$]._$X$e$)$Y$Z$`$g$",
"w#t. %.%S++%@%#%$%%%*.&%*%=%-%;%>%,%y$'%)@P.#+W$].T.[$a.)%!%~%{%",
"( ]%^%/%/@(@(%(@_%:%:%(@k$<%[%}%M@|%D b.1%2%3%@+y$W$4%@.w$5%6%7%",
"8%9%0%a%b%n@c%d%e%f%g%#%h%i%j%k%l%m%n%o%p%K@q%k+q#r%s%^+M t%u%v%",
"w%(+x%y%z%A%B%C%D%e%E%F%E%L$G%H%I%J%K%L%M%N%O%P%Q%R%S%T%/.U%V%W%",
"X%Y%Z%`%@. &.&+&@&#&$&%&n@(%&&*&=&-&B$;&a@>&,&'&r.)&!&~&{&]&^&/&",
"(&_&:&<&[&}&|&1&2&3&4&5&6&7&8&9&0&a&b&c&d&e&f&g&$+h&i&j&k&3%l&m&",
"n&o&p&q&r&s&t&u&G v&'$w&x&y&z&A&B&C&D&E&F&G&H&'%I&J&K&L&M&N&O&P&",
"/ Q&R&S&T&U&V&0+W&X&;$Y&Z&`& *.*+*@*#*$*%*&*'%**=*-*(+;*H >*,*. ",
"O '*)*O++.!*~*b${*q%]*^*/*b$(*j#_*U$:*<*[*}*|*1*s.3%c$2*%%K$3*  ",
"O { 4*q.5*6*7*8*_+9*0*a*b*c*d*e*f*g*h*i*j*k*l*m*n*o*p*q*r*s*t*  ",
"  O u*v*w*x*y*J+,.z*A*B*C*D*T$E*F*G*H*I*J*K*x$L*M*N*O*P*Q*R*O   ",
"          w## { # S*T*U*V*W*X*Y*Z*`* =.=+=@=D+D+#=$=%=+#/ +     "};
